<svg xmlns="http://www.w3.org/2000/svg" width="160" height="40" viewBox="0 0 160 40"><path fill="#949494" d="M38.105 2.177H5.916C2.391 5.732 0 10.554 0 15.664 0 26.81 11.031 37.819 22.159 37.821c11.128.005 22.158-11.012 22.158-22.157 0-5.11-2.686-9.932-6.212-13.487z" opacity=".2"/><path fill="#BA3731" d="M35.54 9.883c-4.963 0-10.216 3.375-10.502 7.771-.019.277 1.81 1.572 6.795 1.43.739-.021 10.304-1.322 11.521-1.492.816-.111.963-.083.963-.083.031-4.302-3.086-7.626-8.777-7.626z"/><path fill="#FF483F" d="M44.317 16.627c-3.501.646-6.482.929-9.028.964h-.967c-10.699-.119-13.038-4.807-13.038-4.807 0 .005.274-.049 0 0-1.912-2.983-5.817-4.827-9.723-4.827-4.713 0-9.092 2.696-10.599 6.744-.411.712-.962 1.73-.962 2.89 0 .103-.121 12.689 13.567 18.129 2.723 1.334 5.653 2.104 8.592 2.104 10.485.004 20.88-9.777 22.046-20.231h-.111c.074-.322.156-.634.223-.966z"/><path fill="#955746" d="M65.195 12.765c-1.029.422-1.828 1.051-2.395 1.891-.567.84-.852 1.888-.852 3.145 0 .293.018.533.051.717.035.186.07.334.108.446s.074.199.108.259a.351.351 0 0 1 .051.158c-.4 0-.757-.039-1.066-.117a1.892 1.892 0 0 1-.777-.385 1.68 1.68 0 0 1-.478-.693c-.11-.287-.163-.637-.163-1.051 0-.512.11-1.016.334-1.514.223-.496.529-.967.918-1.41a8.336 8.336 0 0 1 1.375-1.236 10.11 10.11 0 0 1 3.574-1.625 8.47 8.47 0 0 1 1.957-.231c.174 0 .334.006.482.017.146.012.297.024.448.04l-3.575 16.597c.402.093.805.229 1.209.412.404.188.814.39 1.23.608l1.266.679c.428.23.863.44 1.305.633.443.19.897.35 1.362.47s.942.181 1.437.181c.316 0 .637-.023.959-.078a4.33 4.33 0 0 0 .992-.293c-.068.559-.172 1.061-.313 1.508s-.313.83-.516 1.146c-.205.315-.441.56-.709.729a1.62 1.62 0 0 1-.881.254 3.71 3.71 0 0 1-1.634-.391 10.648 10.648 0 0 1-1.616-.975 29.953 29.953 0 0 1-1.642-1.264 21.282 21.282 0 0 0-1.702-1.265 10.544 10.544 0 0 0-1.811-.974 5.063 5.063 0 0 0-1.969-.389H62c-.082 0-.174.008-.271.021l3.466-16.02z"/><path fill="#955746" d="M81.515 19.447c-.453.475-1.04.877-1.758 1.208a9.355 9.355 0 0 1-2.36.712c-.092 1.067-.297 2.03-.619 2.89-.322.858-.729 1.59-1.221 2.189a5.307 5.307 0 0 1-1.69 1.39 4.392 4.392 0 0 1-2.021.485 5.325 5.325 0 0 1-1.492-.198 3.028 3.028 0 0 1-1.181-.631c-.329-.291-.587-.667-.772-1.13s-.277-1.025-.277-1.688c0-.452.048-.966.143-1.542.094-.574.246-1.168.453-1.777.209-.606.477-1.207.807-1.789a6.848 6.848 0 0 1 1.203-1.563 5.71 5.71 0 0 1 1.64-1.11c.62-.283 1.327-.425 2.122-.425 1.99 0 2.984 1.229 2.984 3.691v.022a.276.276 0 0 0 .108.021h.142c.272 0 .565-.039.879-.118a7.988 7.988 0 0 0 1.879-.757c.303-.169.579-.34.829-.514l.202.634zm-6.049 1.988c-.241-.061-.407-.179-.493-.354a1.391 1.391 0 0 1-.131-.615c0-.322.066-.588.198-.795.133-.207.31-.359.528-.458a4.156 4.156 0 0 0-.079-.626c-.038-.17-.091-.309-.159-.418s-.152-.188-.255-.23a.948.948 0 0 0-.392-.067c-.281 0-.549.106-.807.321a3.783 3.783 0 0 0-.732.853c-.23.354-.442.759-.635 1.213a12.256 12.256 0 0 0-.811 2.834c-.075.474-.113.896-.113 1.281s.021.694.063.938c.041.239.109.433.203.568a.723.723 0 0 0 .369.288c.151.054.336.079.557.079.279 0 .562-.125.846-.373s.546-.587.788-1.018c.243-.43.456-.938.642-1.522.183-.59.322-1.224.413-1.899z"/><path fill="#955746" d="M80.232 16.67h3.349l-1.668 7.856c-.038.175-.068.33-.092.47-.021.14-.033.262-.033.366 0 .234.063.421.188.56.125.14.326.209.607.209.378 0 .741-.131 1.089-.396.349-.264.669-.61.966-1.045.295-.435.563-.924.805-1.475.242-.551.449-1.109.619-1.683s.306-1.132.396-1.677a8.485 8.485 0 0 0 .143-1.451c-.016.037-.055.072-.119.102a1.344 1.344 0 0 1-.438.113 1.818 1.818 0 0 1-.182.012.626.626 0 0 1-.363-.107.994.994 0 0 1-.268-.276 1.306 1.306 0 0 1-.158-.378 1.787 1.787 0 0 1-.051-.412c0-.361.115-.66.347-.896.229-.236.595-.355 1.095-.355.28 0 .514.057.698.17.187.111.335.264.448.451s.195.402.244.645c.049.241.074.488.074.744 0 .617-.056 1.297-.16 2.037a14.652 14.652 0 0 1-1.379 4.428 8.354 8.354 0 0 1-1.268 1.875 6.09 6.09 0 0 1-1.689 1.313c-.638.332-1.349.498-2.136.498-.878 0-1.572-.227-2.083-.674s-.766-1.131-.766-2.051c0-.127.008-.291.022-.49.016-.197.045-.406.092-.627l1.671-7.856zm17.763 7.418a13.482 13.482 0 0 1-1.117 1.58c-.42.513-.895.968-1.42 1.367A7.029 7.029 0 0 1 93.71 28a5.855 5.855 0 0 1-2.104.367 5.04 5.04 0 0 1-1.5-.209 2.986 2.986 0 0 1-1.146-.65 2.831 2.831 0 0 1-.73-1.135c-.17-.463-.256-1.021-.256-1.677 0-.443.045-.955.137-1.534.092-.58.234-1.175.433-1.784.196-.609.458-1.208.783-1.796a7.034 7.034 0 0 1 1.181-1.574 5.4 5.4 0 0 1 1.623-1.116c.62-.283 1.328-.425 2.121-.425.521 0 .949.063 1.275.187.33.125.592.289.783.492.192.203.326.438.396.705s.107.543.107.83c0 .67-.147 1.293-.442 1.867a4.934 4.934 0 0 1-1.187 1.508 6.145 6.145 0 0 1-1.709 1.039 6.343 6.343 0 0 1-2.008.463c-.018.174-.029.336-.041.49a5.197 5.197 0 0 0-.018.436c0 .394.033.714.105.967.071.253.178.447.317.594.14.145.313.242.521.301.207.057.451.086.731.086.461 0 .88-.063 1.255-.184a4.373 4.373 0 0 0 1.049-.497c.326-.21.635-.459.926-.745.291-.285.584-.591.879-.914l.804-.004zm-6.344-1.638a3.14 3.14 0 0 0 1.271-.372 3.89 3.89 0 0 0 1.079-.853c.309-.354.557-.75.742-1.199.186-.447.277-.912.277-1.395 0-.287-.041-.516-.123-.689-.084-.172-.235-.26-.455-.26-.295 0-.584.143-.867.424-.284.283-.551.648-.801 1.102s-.471.962-.664 1.53a13.6 13.6 0 0 0-.459 1.712z"/><path fill="#955746" d="M110.398 24.088a10.23 10.23 0 0 1-.715 1.625c-.26.459-.523.849-.803 1.163s-.558.57-.845.77a4.08 4.08 0 0 1-.841.451 3.88 3.88 0 0 1-.782.215 4.743 4.743 0 0 1-.684.059c-.655 0-1.182-.182-1.569-.537s-.626-.889-.709-1.586a7.975 7.975 0 0 1-.624.771 4.592 4.592 0 0 1-.764.679c-.276.198-.592.36-.936.483a3.335 3.335 0 0 1-1.141.188c-.402 0-.787-.063-1.158-.192a2.53 2.53 0 0 1-.988-.632c-.287-.295-.518-.678-.691-1.151-.172-.475-.26-1.055-.26-1.737 0-.526.051-1.093.157-1.692.106-.604.269-1.205.488-1.808s.493-1.179.823-1.732a6.96 6.96 0 0 1 1.156-1.468c.44-.426.942-.764 1.504-1.016a4.467 4.467 0 0 1 1.852-.379c.658 0 1.137.112 1.436.338.299.227.447.506.447.836v.17l.25-1.23h3.347l-1.667 7.856c-.037.13-.063.255-.078.38a2.833 2.833 0 0 0-.021.365c0 .662.315.994.953.994.229 0 .438-.061.63-.176a2.04 2.04 0 0 0 .525-.47c.158-.194.302-.429.423-.692.118-.268.223-.55.307-.843l.978-.002zm-5.854-5.217a.952.952 0 0 0-.046-.254.887.887 0 0 0-.442-.53 1.007 1.007 0 0 0-.465-.097c-.326 0-.635.104-.926.315s-.559.491-.8.842a6.707 6.707 0 0 0-.647 1.191c-.188.443-.35.9-.482 1.371-.131.471-.229.934-.301 1.389a8.966 8.966 0 0 0-.102 1.228c0 .442.041.784.125 1.024.083.242.184.42.301.537a.693.693 0 0 0 .381.209c.135.021.256.033.362.033.175 0 .358-.043.552-.13.192-.087.377-.214.555-.384.181-.17.344-.383.488-.639a3.14 3.14 0 0 0 .334-.894l1.113-5.211z"/><path fill="#955746" d="M122.135 24.088c-.324.947-.675 1.705-1.049 2.271-.375.563-.754.994-1.135 1.293-.385.299-.76.49-1.125.58a4.116 4.116 0 0 1-1.016.139c-.518 0-.945-.074-1.295-.223a2.18 2.18 0 0 1-.838-.588 2.254 2.254 0 0 1-.464-.836 3.331 3.331 0 0 1-.142-.966c0-.391.055-.848.162-1.37a71.28 71.28 0 0 1 .357-1.609c.129-.547.248-1.078.356-1.592.11-.513.165-.951.165-1.318 0-.791-.279-1.186-.84-1.186-.211 0-.409.057-.59.168a1.823 1.823 0 0 0-.498.459c-.152.19-.289.416-.41.676a6.407 6.407 0 0 0-.318.832l-1.577 7.418h-3.349l3.371-15.729 3.439-.463-1.25 5.826c.252-.279.5-.503.741-.672.246-.171.487-.3.724-.392.232-.09.457-.149.664-.18a4.23 4.23 0 0 1 .586-.045c.369 0 .715.049 1.031.146s.592.252.821.463.409.48.537.813c.131.332.192.727.192 1.186 0 .31-.027.643-.086 1-.057.357-.127.723-.211 1.094-.082.371-.17.742-.267 1.111-.095.369-.183.726-.267 1.063-.084.339-.153.651-.209.94a3.78 3.78 0 0 0-.086.765c0 .285.063.521.195.696.137.185.377.271.73.271.252 0 .472-.049.658-.146.189-.098.359-.234.514-.418.148-.18.289-.396.414-.646.123-.253.248-.526.365-.83l1-.001z"/><path fill="#955746" d="M134.223 19.447c-.455.475-1.041.877-1.76 1.208a9.362 9.362 0 0 1-2.361.712c-.09 1.067-.297 2.03-.617 2.89-.319.858-.729 1.59-1.221 2.189a5.333 5.333 0 0 1-1.688 1.39 4.404 4.404 0 0 1-2.021.485 5.325 5.325 0 0 1-1.492-.198 3.043 3.043 0 0 1-1.183-.631 2.949 2.949 0 0 1-.771-1.13c-.186-.463-.275-1.025-.275-1.688 0-.452.047-.966.143-1.542.097-.574.246-1.168.455-1.777.207-.606.478-1.207.805-1.789a6.848 6.848 0 0 1 1.203-1.563 5.734 5.734 0 0 1 1.642-1.11c.621-.283 1.328-.425 2.123-.425 1.989 0 2.983 1.229 2.983 3.691v.022a.259.259 0 0 0 .105.021h.145c.271 0 .564-.039.879-.118a7.2 7.2 0 0 0 .949-.312c.314-.127.627-.275.93-.445.304-.169.578-.34.828-.514l.199.634zm-6.051 1.988c-.24-.061-.406-.179-.492-.354a1.364 1.364 0 0 1-.131-.615c0-.322.066-.588.199-.795.131-.207.307-.359.527-.458a4.73 4.73 0 0 0-.08-.626c-.037-.17-.09-.309-.158-.418s-.154-.188-.256-.23a.94.94 0 0 0-.391-.067c-.281 0-.552.106-.81.321a3.653 3.653 0 0 0-.729.853c-.23.354-.441.759-.638 1.213-.19.456-.354.927-.491 1.406-.14.479-.242.957-.318 1.428-.074.474-.113.896-.113 1.281s.021.694.063.938c.043.239.109.433.205.568a.715.715 0 0 0 .369.288c.15.054.336.079.555.079.281 0 .563-.125.849-.373.28-.248.547-.587.789-1.018.239-.43.457-.938.646-1.522.176-.59.315-1.224.405-1.899z"/><path fill="#955746" d="M138.547 24.088a9.45 9.45 0 0 1-.732 1.625c-.27.459-.549.849-.84 1.163s-.59.57-.896.77a4.618 4.618 0 0 1-.892.451 4.366 4.366 0 0 1-.821.215 5.112 5.112 0 0 1-.699.059c-.349 0-.674-.055-.978-.158a2.02 2.02 0 0 1-.787-.498c-.225-.226-.399-.512-.528-.855s-.19-.766-.19-1.252c0-.211.016-.442.045-.694.028-.253.076-.524.139-.817l2.482-11.585 3.438-.463-2.668 12.485a1.88 1.88 0 0 0-.072.38 3.787 3.787 0 0 0-.019.366c0 .324.074.547.228.672.152.123.39.188.716.188.229 0 .446-.052.664-.152.217-.102.414-.24.596-.424.184-.181.346-.396.488-.646.144-.251.262-.523.354-.816h.975l-.003-.014z"/><path fill="#955746" d="M144.754 24.088a9.3 9.3 0 0 1-.732 1.625 6.524 6.524 0 0 1-.84 1.163c-.291.314-.59.57-.896.77a4.366 4.366 0 0 1-1.713.666 5.11 5.11 0 0 1-.697.059c-.351 0-.674-.055-.978-.158a2.012 2.012 0 0 1-.789-.498c-.223-.226-.397-.512-.526-.855s-.192-.766-.192-1.252c0-.211.018-.442.045-.694.028-.253.076-.524.139-.817l1.576-7.419h3.35l-1.668 7.856c-.039.13-.063.255-.074.38a3.783 3.783 0 0 0-.018.366c0 .324.074.547.227.672.152.123.393.188.719.188.228 0 .445-.052.664-.152a2.11 2.11 0 0 0 .596-.424 3.05 3.05 0 0 0 .488-.646c.143-.252.26-.523.353-.816h.972v-.008h-.004v-.006zm-1.441-10.487c0 .256-.049.494-.146.717a1.725 1.725 0 0 1-.404.574c-.17.162-.365.291-.59.385a1.836 1.836 0 0 1-.721.141 1.843 1.843 0 0 1-1.701-1.1 1.825 1.825 0 0 1-.144-.717 1.828 1.828 0 0 1 .54-1.306c.167-.17.358-.303.584-.399.225-.099.463-.146.721-.146s.498.049.721.146c.225.098.42.229.59.399.172.17.307.365.404.587.097.222.146.461.146.719z"/><path fill="#955746" d="M153.494 24.088a13.601 13.601 0 0 1-1.117 1.58c-.42.513-.895.968-1.42 1.367a7.029 7.029 0 0 1-1.748.965 5.851 5.851 0 0 1-2.104.367c-.558 0-1.053-.07-1.5-.209a2.979 2.979 0 0 1-1.146-.65 2.853 2.853 0 0 1-.73-1.135c-.172-.463-.256-1.021-.256-1.677 0-.443.045-.957.137-1.54a11.064 11.064 0 0 1 1.221-3.585 6.582 6.582 0 0 1 1.183-1.569 5.667 5.667 0 0 1 1.614-1.11c.615-.283 1.313-.425 2.104-.425.514 0 .938.063 1.27.187.334.125.598.287.795.486.197.198.334.426.41.683a2.764 2.764 0 0 1 .015 1.507 1.557 1.557 0 0 1-.269.525 1.083 1.083 0 0 1-.875.418c-.267 0-.537-.09-.813-.271.188-.496.28-.951.28-1.365 0-.287-.053-.516-.155-.688a.538.538 0 0 0-.488-.261c-.242 0-.484.109-.729.328a4.02 4.02 0 0 0-.696.869 7.728 7.728 0 0 0-.617 1.242c-.189.467-.354.951-.494 1.456-.141.505-.25 1.007-.328 1.507-.08.501-.121.967-.121 1.395 0 .395.037.714.109.968.068.253.178.448.315.594s.313.242.521.302c.207.057.451.084.732.084a4.1 4.1 0 0 0 1.254-.183 4.355 4.355 0 0 0 1.049-.497c.326-.21.636-.459.927-.745.291-.284.584-.591.88-.914h.794v-.003l-.004-.003z"/><path fill="#955746" d="M159.485 15.959c.047 1 .09 1.868.131 2.603.043.733.082 1.369.119 1.908.037.538.072.995.104 1.371.029.376.057.711.084.999.025.29.045.554.057.791.015.236.021.481.021.738 0 .505-.067.955-.21 1.351a3.54 3.54 0 0 1-.564 1.032 3.75 3.75 0 0 1-.827.75 5.003 5.003 0 0 1-.988.504c-.344.127-.695.22-1.051.275a6.508 6.508 0 0 1-1.01.086c-.582 0-1.086-.091-1.519-.267a3.342 3.342 0 0 1-1.063-.688 2.76 2.76 0 0 1-.617-.948 2.94 2.94 0 0 1-.196-1.056c0-.271.035-.521.104-.75.072-.229.164-.437.277-.615a2.11 2.11 0 0 1 .852-.781 28.482 28.482 0 0 0 1.646-3.438 54.147 54.147 0 0 0 1.215-3.416l3.435-.449zm-6.297 8.964c0 .542.104.946.324 1.215.215.27.577.399 1.096.399.256 0 .506-.035.748-.106a1.61 1.61 0 0 0 .646-.361c.188-.17.343-.389.455-.658s.17-.607.17-1.018a20.322 20.322 0 0 0-.058-1.158 23.618 23.618 0 0 0-.063-.691c-.026-.256-.057-.556-.09-.895-.035-.338-.071-.729-.108-1.172s-.078-.963-.125-1.56a18.856 18.856 0 0 1-.828 2.188c-.316.707-.67 1.437-1.056 2.182.15.083.277.188.38.313a.748.748 0 0 1 .153.486c0 .143-.022.281-.067.418a1.092 1.092 0 0 1-.527.626.925.925 0 0 1-.426.097c-.129 0-.25-.02-.361-.057a.437.437 0 0 1-.263-.248z"/></svg>